<svg width="549" height="184" viewBox="0 0 549 184" fill="none" xmlns="http://www.w3.org/2000/svg">
<path d="M9 164.981C22.9974 156.792 53.7467 137.572 64.764 126.211" stroke="white" stroke-width="18" stroke-linecap="round"/>
<path d="M83.7287 103.671C92.985 93.828 112.256 69.7517 116.239 34.2447C119.4 6.06843 90.9338 1.25703 81.6968 26.1299C74.2465 46.1914 70.6343 109.381 66.3447 139.511" stroke="white" stroke-width="18" stroke-linecap="round"/>
<path d="M59.3457 173.325C61.9796 155.819 69.2794 120.58 81.4707 106.153C94.8681 90.2998 120.97 86.4195 124.14 112.69C126.398 131.399 113.755 159.35 126.172 168.817C138.589 178.284 169.745 170.17 182.839 161.379" stroke="white" stroke-width="18" stroke-linecap="round"/>
<path d="M184.871 159.514C197.739 153.428 215.603 140.061 221.445 119.548C228.979 93.0916 199.746 81.5852 182.839 100.965C169.97 115.717 167.487 146.413 185.548 160.04" stroke="white" stroke-width="18" stroke-linecap="round"/>
<path d="M180.808 155.517C192.773 171.521 233.321 185.586 269.082 148.078" stroke="white" stroke-width="18" stroke-linecap="round"/>
<path d="M275.404 141.315C285.488 128.617 307.236 99.2533 314.461 73.4664C323.491 41.2328 325.298 18.4664 313.106 12.6057C299.56 6.0938 282.854 24.2012 275.403 61.3939C270.155 87.5935 269.082 101.417 269.082 121.253" stroke="white" stroke-width="18" stroke-linecap="round"/>
<path d="M269.082 122.152C268.706 138.833 273.597 173.275 302.495 173.997C336.134 174.836 359.764 143.566 370.225 128.013" stroke="white" stroke-width="18" stroke-linecap="round"/>
<path d="M370.902 126.889C379.933 112.914 395.357 82.1098 401.832 56.3357C409.282 26.6812 405.311 16.3438 395.059 12.8316C382.19 8.42295 367.741 25.9054 360.743 56.3357C354.354 84.1127 347.648 120.803 355.776 144.246" stroke="white" stroke-width="18" stroke-linecap="round"/>
<path d="M352.841 130.819C354.421 149.753 369.068 173.013 387.383 173.772C411.54 174.774 428.698 156.416 439.76 122.379" stroke="white" stroke-width="18" stroke-linecap="round"/>
<path d="M439.986 122.381C434.342 146.5 439.624 174.812 467.98 173.549C496.337 172.287 504.027 144.171 504.329 130.271C505.608 116.971 500.987 91.5 474.076 91.5" stroke="white" stroke-width="18" stroke-linecap="round"/>
<path d="M440.438 119.9C443.147 110.433 453.351 91.4983 472.496 91.4983C496.427 91.4983 494.621 102.994 511.779 102.543C525.506 102.183 536.312 92.7757 540 88.1172" stroke="white" stroke-width="18" stroke-linecap="round"/>
</svg>
